<svg
  xmlns="http://www.w3.org/2000/svg"
  viewBox="0 0 512 512"
  role="img"
  aria-labelledby="title desc"
>
  <title id="title">Avas Themes logo option with man avatar</title>
  <desc id="desc">A color palette logo with a man avatar centered inside the paint wheel.</desc>
  <defs>
    <clipPath id="avatar-clip">
      <circle cx="256" cy="256" r="84" />
    </clipPath>
  </defs>

  <path
    d="M256 0C114.615 0 0 114.615 0 256S114.615 512 256 512S512 397.385 512 256S397.385 0 256 0ZM256 336.842C211.352 336.842 175.158 300.648 175.158 256S211.352 175.158 256 175.158S336.842 211.352 336.842 256S300.648 336.842 256 336.842Z"
    fill="#ffffff"
  />
  <path
    d="M282.947 188.632H503.023C485.09 122.726 441.507 67.394 383.64 34.044L229.053 188.632H282.947Z"
    fill="#d4b6e6"
  />
  <path
    d="M229.053 188.632L383.639 34.044C346.068 12.39 302.482 0 256 0C232.681 0 210.101 3.135 188.632 8.978V229.053L229.053 188.632Z"
    fill="#ebafd1"
  />
  <path
    d="M188.632 229.053V8.978C122.726 26.91 67.394 70.493 34.045 128.36L188.631 282.948V229.053Z"
    fill="#e07188"
  />
  <path
    d="M503.024 188.632H282.947V188.633H283.905L323.368 229.053L477.955 383.64C499.611 346.068 512 302.482 512 256C512 232.681 508.865 210.099 503.024 188.632Z"
    fill="#b4d8f1"
  />
  <path
    d="M323.368 282.947V503.022C389.273 485.09 444.606 441.505 477.954 383.64L323.368 229.053V282.947Z"
    fill="#acfff4"
  />
  <path
    d="M282.947 323.368L128.361 477.956C165.932 499.61 209.518 512 256 512C279.319 512 301.899 508.865 323.368 503.023V282.947L282.947 323.368Z"
    fill="#95d5a7"
  />
  <path
    d="M229.053 323.368H8.976C26.91 389.274 70.493 444.606 128.36 477.956L282.948 323.368H229.053Z"
    fill="#f8e99b"
  />
  <path
    d="M188.632 282.947L34.045 128.36C12.389 165.932 0 209.518 0 256C0 279.319 3.135 301.901 8.976 323.368H229.052L188.632 282.947Z"
    fill="#efc27b"
  />
  <path
    d="M503.024 188.632C485.09 122.726 441.507 67.394 383.64 34.044L256 161.684V188.631H282.947H503.024Z"
    fill="#b681d5"
  />
  <path d="M383.639 34.044C346.068 12.39 302.482 0 256 0V161.684L383.639 34.044Z" fill="#e592bf" />
  <path
    d="M256 350.316V512C279.319 512 301.899 508.865 323.368 503.023V282.947L282.947 323.368L256 350.316Z"
    fill="#80cb93"
  />
  <polygon points="282.947 323.368 256 323.368 256 350.316" fill="#f6e27d" />

  <circle cx="256" cy="256" r="88" fill="#ffffff" stroke="#ffffff" stroke-width="10" />
  <g clip-path="url(#avatar-clip)">
    <svg
      x="172"
      y="172"
      width="168"
      height="168"
      viewBox="0 0 508.609 508.609"
      preserveAspectRatio="xMidYMid meet"
      aria-hidden="true"
    >
      <path
        style="fill:#F1F3F7;"
        d="M345.007,268.207H163.264c-83.073,0-150.209,67.476-150.209,150.548v89.854h482.501v-89.854
          C495.216,335.682,428.079,268.207,345.007,268.207z"
      />
      <circle style="fill:#DEDEDF;" cx="254.135" cy="250.236" r="67.476" />
      <g>
        <circle style="fill:#EEB490;" cx="157.499" cy="133.595" r="39.672" />
        <circle style="fill:#EEB490;" cx="350.771" cy="133.595" r="39.672" />
      </g>
      <path
        style="fill:#FACCB4;"
        d="M254.135,0L254.135,0c-55.947,0-101.383,45.436-101.383,101.383v74.257
          c0,55.947,45.436,101.383,101.383,101.383l0,0c55.947,0,101.383-45.436,101.383-101.383v-74.257C355.518,45.436,310.082,0,254.135,0
          z"
      />
      <g>
        <path
          style="fill:#F1F3F7;"
          d="M202.596,10.172L202.596,10.172c15.258,44.079-7.799,92.228-51.878,107.825l0,0
            C135.46,73.579,158.517,25.43,202.596,10.172z"
        />
        <path
          style="fill:#F1F3F7;"
          d="M305.674,10.172L305.674,10.172c-15.258,44.079,7.799,92.228,51.878,107.825l0,0
            C372.811,73.579,349.754,25.43,305.674,10.172z"
        />
      </g>
      <g>
        <rect x="238.538" y="303.809" style="fill:#DEDEDF;" width="10.511" height="204.8" />
        <circle style="fill:#DEDEDF;" cx="277.87" cy="349.923" r="12.546" />
        <circle style="fill:#DEDEDF;" cx="277.87" cy="410.956" r="12.546" />
        <circle style="fill:#DEDEDF;" cx="277.87" cy="471.989" r="12.546" />
      </g>
    </svg>
  </g>
</svg>
